<?xml version="1.0" encoding="utf-8"?>
<!-- Generator: Adobe Illustrator 23.0.1, SVG Export Plug-In . SVG Version: 6.00 Build 0)  -->
<svg version="1.1" id="Layer_1" xmlns="http://www.w3.org/2000/svg" xmlns:xlink="http://www.w3.org/1999/xlink" x="0px" y="0px"
	 viewBox="0 0 530.97 551.99" style="enable-background:new 0 0 530.97 551.99;" xml:space="preserve">
<style type="text/css">
	.st0{fill-rule:evenodd;clip-rule:evenodd;}
	.st1{fill:#FFFFFF;}
</style>
<g>
	<path class="st0" d="M374.99,496.03c3.7-1.53-20.57-6.4-20.57-14.37c0-9.87,0.34-42.12,0.34-82.2c0-27.94-9.57-46.17-20.31-55.47
		c66.7-7.42,136.77-32.74,136.77-147.78c0-32.7-11.62-59.42-30.82-80.39c3.11-7.55,13.36-38.01-2.94-79.27
		c0,0-25.11-8.05-82.28,30.71c-23.94-6.64-49.58-9.97-75.03-10.08c-25.45,0.12-51.08,3.44-74.97,10.08
		c-57.23-38.75-82.39-30.71-82.39-30.71c-16.27,41.26-6.01,71.72-2.9,79.27c-19.16,20.98-30.86,47.7-30.86,80.39
		c0,114.77,69.94,140.45,136.47,148.02c-8.57,7.48-16.33,20.7-19.02,40.05c-17.09,7.65-60.45,20.89-87.16-24.9
		c0,0-15.84-28.76-45.91-30.87c0,0-29.23-0.38-2.05,18.21c0,0,19.63,9.21,33.26,43.83c0,0,17.58,53.46,100.91,35.34
		c0.13,25.03,0.41,48.63,0.41,55.76c0,7.91-24.62,12.54-20.46,14.41C244.31,522.54,309.54,523.09,374.99,496.03z"/>
	<path class="st1" d="M94.05,342.38c-0.66,1.49-3,1.94-5.13,0.92c-2.17-0.98-3.39-3.01-2.69-4.5c0.64-1.53,2.99-1.96,5.16-0.93
		C93.56,338.84,94.8,340.89,94.05,342.38L94.05,342.38z"/>
	<path class="st1" d="M106.19,355.92c-1.43,1.32-4.22,0.71-6.12-1.39c-1.96-2.09-2.32-4.88-0.88-6.22c1.47-1.32,4.18-0.7,6.14,1.39
		C107.3,351.8,107.68,354.57,106.19,355.92L106.19,355.92z"/>
	<path class="st1" d="M118,373.16c-1.84,1.28-4.84,0.08-6.69-2.58c-1.84-2.66-1.84-5.86,0.04-7.14c1.86-1.28,4.81-0.13,6.69,2.51
		C119.87,368.66,119.87,371.86,118,373.16L118,373.16z"/>
	<path class="st1" d="M134.17,389.83c-1.64,1.81-5.14,1.32-7.7-1.15c-2.62-2.41-3.35-5.84-1.7-7.65c1.67-1.81,5.18-1.3,7.76,1.15
		C135.13,384.59,135.92,388.04,134.17,389.83L134.17,389.83z"/>
	<path class="st1" d="M156.49,399.51c-0.73,2.34-4.09,3.41-7.48,2.41c-3.39-1.03-5.6-3.77-4.92-6.14c0.7-2.36,4.09-3.47,7.5-2.41
		C154.98,394.39,157.2,397.12,156.49,399.51L156.49,399.51z"/>
	<path class="st1" d="M181.01,401.3c0.08,2.47-2.79,4.52-6.36,4.56c-3.58,0.08-6.48-1.92-6.52-4.35c0-2.49,2.81-4.52,6.39-4.58
		C178.09,396.86,181.01,398.85,181.01,401.3L181.01,401.3z"/>
	<path class="st1" d="M203.82,397.42c0.43,2.41-2.05,4.88-5.58,5.54c-3.48,0.64-6.69-0.85-7.14-3.24c-0.43-2.47,2.09-4.95,5.56-5.58
		C200.19,393.52,203.37,394.97,203.82,397.42L203.82,397.42z"/>
</g>
</svg>
